<?xml version="1.0" encoding="UTF-8" standalone="no"?>
<!DOCTYPE svg PUBLIC "-//W3C//DTD SVG 1.1//EN" "http://www.w3.org/Graphics/SVG/1.1/DTD/svg11.dtd">
<svg xmlns="http://www.w3.org/2000/svg" version="1.1" viewBox="0.00 0.00 1211.00 1196.00" width="1211.00" height="1196.00">
<path fill="#151a1e" d="
  M 84.92 333.94
  C 101.45 299.19 121.37 267.00 145.33 237.53
  C 155.40 225.15 165.07 212.09 176.06 200.55
  C 192.92 182.87 210.65 166.10 229.24 150.25
  C 255.47 127.88 282.36 109.11 309.89 93.93
  C 391.71 48.82 484.28 20.43 578.12 18.09
  C 723.69 14.46 872.47 62.81 983.99 157.73
  C 996.56 168.42 1005.29 176.04 1010.18 180.58
  C 1015.97 185.95 1023.05 193.29 1031.42 202.59
  C 1081.47 258.20 1119.61 320.94 1145.82 390.83
  C 1208.56 558.08 1187.90 745.35 1097.53 898.60
  C 1078.23 931.33 1054.11 962.80 1030.19 991.71
  C 1009.41 1016.83 980.71 1038.63 954.29 1059.05
  C 938.96 1070.90 920.54 1082.87 899.05 1094.97
  C 849.06 1123.11 797.54 1143.98 744.50 1157.58
  C 678.38 1174.53 605.95 1176.46 537.29 1170.17
  C 378.07 1155.60 223.84 1069.68 133.67 936.59
  C 90.34 872.64 59.34 801.04 41.31 726.00
  C 29.45 676.66 24.02 629.36 25.63 579.85
  C 28.42 494.37 48.06 411.41 84.92 333.94
  Z
  M 406.69 1023.32
  C 441.55 1038.81 477.73 1050.08 515.24 1057.14
  C 546.08 1062.95 578.03 1065.66 609.37 1063.41
  C 622.01 1062.50 634.31 1063.40 647.03 1061.75
  C 674.72 1058.14 702.11 1052.95 729.22 1046.18
  C 752.11 1040.46 774.95 1030.97 796.62 1021.55
  C 802.49 1019.00 806.14 1016.28 806.37 1009.85
  C 808.16 959.82 809.95 909.78 811.76 859.75
  C 811.81 858.58 811.23 857.72 810.03 857.18
  C 809.74 857.05 809.43 857.02 809.12 857.11
  C 808.24 857.36 807.55 857.53 806.78 858.11
  C 702.38 936.07 562.11 955.58 445.10 893.90
  C 352.90 845.29 287.03 755.62 271.34 651.41
  C 270.43 645.38 269.73 638.75 269.22 631.54
  C 267.72 610.02 267.29 588.84 267.93 568.00
  C 268.66 544.39 272.67 521.28 279.95 498.69
  C 284.34 485.05 291.35 468.90 296.84 456.08
  C 318.43 405.72 352.12 361.66 395.91 328.44
  C 425.18 306.23 457.20 289.13 491.95 277.13
  C 516.34 268.71 539.94 263.41 562.75 261.23
  C 591.23 258.51 616.68 261.21 643.71 262.91
  C 651.53 263.40 659.30 264.34 667.01 265.72
  C 696.26 270.97 724.38 279.82 751.37 292.25
  C 755.28 294.05 758.27 297.06 762.06 298.64
  C 763.29 299.16 764.66 298.33 764.77 297.00
  C 767.22 267.39 768.57 237.81 768.80 208.25
  C 768.81 206.67 768.81 205.09 768.78 203.50
  C 768.59 193.25 768.44 183.00 768.31 172.75
  C 768.27 169.34 767.72 166.01 766.65 162.78
  C 764.92 157.53 761.76 155.57 756.41 153.52
  C 721.84 140.25 684.84 133.88 648.00 131.45
  C 626.81 130.06 612.64 129.23 605.50 128.98
  C 477.66 124.47 350.79 179.88 262.75 271.76
  C 218.45 318.00 185.74 371.63 163.23 431.50
  C 160.14 439.73 158.06 445.89 157.01 450.00
  C 151.41 471.81 147.57 486.47 145.48 494.00
  C 140.03 513.63 136.74 534.25 135.63 555.86
  C 132.88 609.10 135.29 662.75 150.55 713.37
  C 157.15 735.23 161.59 749.66 163.87 756.66
  C 202.86 876.21 292.10 972.42 406.69 1023.32
  Z
  M 1015.53 820.29
  C 1024.72 801.00 1033.58 781.50 1041.68 761.73
  C 1045.09 753.42 1047.54 746.68 1049.03 741.51
  C 1063.81 690.39 1070.77 638.19 1069.91 584.91
  C 1069.40 553.48 1066.65 523.86 1061.66 496.05
  C 1055.47 461.61 1044.08 430.19 1029.80 397.22
  C 999.32 326.82 951.15 267.16 888.65 223.10
  C 886.76 221.77 879.41 217.71 879.28 223.25
  C 878.14 269.09 877.03 314.93 875.95 360.77
  C 875.86 364.46 875.45 369.03 876.03 373.17
  C 876.38 375.72 877.37 378.67 879.00 382.01
  C 889.69 403.88 900.08 424.90 909.49 448.26
  C 918.59 470.87 923.76 494.11 925.00 518.00
  C 925.39 525.59 925.57 530.34 925.52 532.25
  C 924.91 557.59 924.67 577.68 924.48 595.67
  C 924.45 598.44 924.39 600.50 924.30 601.83
  C 921.17 648.75 919.58 689.38 917.81 739.51
  C 917.60 745.53 917.31 752.19 916.94 759.50
  C 915.61 786.52 914.65 813.55 914.06 840.60
  C 913.29 876.10 908.67 911.33 908.46 946.87
  C 908.44 951.02 911.52 955.15 915.52 951.06
  C 927.83 938.45 941.16 925.99 952.57 913.19
  C 977.39 885.35 999.44 854.07 1015.53 820.29
  Z
  M 823.05 594.36
  C 823.05 471.41 723.38 371.74 600.43 371.74
  C 477.48 371.74 377.81 471.41 377.81 594.36
  C 377.81 717.31 477.48 816.98 600.43 816.98
  C 723.38 816.98 823.05 717.31 823.05 594.36
  Z"
/>
</svg>
