<?xml version="1.0" encoding="UTF-8" standalone="no"?>
<!DOCTYPE svg PUBLIC "-//W3C//DTD SVG 1.1//EN" "http://www.w3.org/Graphics/SVG/1.1/DTD/svg11.dtd">
<svg xmlns="http://www.w3.org/2000/svg" version="1.1" viewBox="0.00 0.00 500.00 500.00" width="500.00" height="500.00">
<path fill="#151a1e" d="
  M 55.35 276.21
  C 48.29 232.30 57.77 185.11 77.98 146.24
  C 83.90 134.88 91.28 124.40 100.35 113.37
  C 114.79 95.81 133.10 79.70 152.91 68.44
  C 185.16 50.11 221.99 39.48 259.25 39.98
  C 305.12 40.58 352.42 55.48 388.91 83.84
  C 396.08 89.41 404.29 96.24 410.72 103.07
  C 475.86 172.14 485.53 274.34 437.30 355.83
  C 431.08 366.34 423.34 376.73 415.44 386.45
  Q 410.63 392.36 405.01 397.52
  Q 367.72 431.73 319.11 446.20
  C 296.25 453.01 272.73 454.82 248.97 453.85
  C 202.78 451.95 159.57 435.26 124.46 405.54
  C 86.59 373.49 63.18 324.90 55.35 276.21
  Z
  M 262.51 366.82
  C 198.98 370.55 144.40 319.76 140.34 257.02
  C 139.46 243.41 139.64 228.42 143.35 215.76
  Q 147.03 203.20 154.52 188.79
  C 171.11 156.88 201.38 135.54 237.01 128.55
  Q 248.90 126.22 261.00 126.94
  C 267.54 127.33 274.60 127.52 280.64 128.46
  Q 297.41 131.07 312.92 138.13
  C 314.30 138.75 315.78 139.95 317.32 140.52
  Q 318.13 140.81 318.20 139.95
  Q 319.46 124.70 319.43 109.57
  C 319.43 105.34 320.86 90.85 316.53 88.97
  C 302.10 82.73 284.67 81.08 267.74 80.05
  Q 253.97 79.22 243.26 80.22
  C 175.10 86.63 115.17 134.81 98.32 202.00
  C 96.16 210.63 93.71 218.81 92.96 227.75
  Q 91.01 250.95 94.47 273.97
  Q 95.51 280.86 99.42 294.15
  Q 104.97 312.98 111.83 326.54
  Q 128.55 359.59 158.11 381.89
  Q 193.00 408.23 238.51 414.00
  C 249.42 415.39 258.61 414.90 268.91 414.58
  Q 274.92 414.39 279.03 413.79
  C 297.01 411.17 313.99 407.27 330.45 399.34
  C 331.80 398.70 333.03 397.70 333.08 396.25
  Q 333.98 372.25 334.96 348.26
  Q 335.11 344.69 334.92 341.59
  A 0.94 0.93 -20.1 0 0 333.43 340.90
  Q 301.26 364.54 262.51 366.82
  Z
  M 416.28 309.94
  C 422.23 296.06 425.23 279.96 426.61 264.99
  C 428.63 243.09 427.68 219.51 421.52 198.32
  C 411.38 163.39 391.62 133.90 361.70 112.84
  A 2.71 1.28 -18.3 0 0 359.89 112.62
  Q 359.09 112.75 359.07 114.00
  Q 358.62 136.06 357.95 158.12
  Q 357.78 163.43 358.11 167.41
  A 7.92 7.86 -61.0 0 0 358.97 170.45
  C 366.57 185.23 373.93 200.28 375.43 217.14
  C 376.02 223.78 375.58 232.15 375.47 239.62
  Q 375.34 247.87 374.90 256.46
  Q 373.04 292.23 371.94 328.03
  C 371.48 343.13 370.01 358.15 369.64 373.24
  Q 369.60 375.03 371.16 375.06
  A 1.49 1.49 0.0 0 0 372.26 374.60
  C 377.98 368.61 384.36 362.51 389.31 356.57
  C 401.59 341.84 409.16 326.58 416.28 309.94
  Z
  M 339.09 246.58
  A 79.86 79.86 0.0 0 0 259.23 166.72
  A 79.86 79.86 0.0 0 0 179.37 246.58
  A 79.86 79.86 0.0 0 0 259.23 326.44
  A 79.86 79.86 0.0 0 0 339.09 246.58
  Z"
/>
</svg>
