<?xml version="1.0" encoding="UTF-8" standalone="no" ?>
<!DOCTYPE svg PUBLIC "-//W3C//DTD SVG 1.1//EN" "http://www.w3.org/Graphics/SVG/1.1/DTD/svg11.dtd">
<svg xmlns="http://www.w3.org/2000/svg" xmlns:xlink="http://www.w3.org/1999/xlink" version="1.1" width="500" height="500" viewBox="0 0 500 500" xml:space="preserve">
<desc>Created with Fabric.js 5.3.0</desc>
<defs>
</defs>
<g transform="matrix(1.1449732832 0 0 1.1702331425 250 243.484671802)" id="od42WJbf8mQhraGDhY5CS"  >
<path style="stroke: none; stroke-width: 1; stroke-dasharray: none; stroke-linecap: butt; stroke-dashoffset: 0; stroke-linejoin: miter; stroke-miterlimit: 4; fill: rgb(21,26,30); fill-rule: nonzero; opacity: 1;"  transform=" translate(-260.3195524348, -247.0281251006)" d="M 55.35 276.21 C 48.29 232.3 57.77 185.11 77.98 146.24 C 83.9 134.88 91.28 124.4 100.35 113.37 C 114.79 95.81 133.1 79.7 152.91 68.44 C 185.16 50.11 221.99 39.48 259.25 39.98 C 305.12 40.58 352.42 55.48 388.91 83.84 C 396.08 89.41 404.29 96.24 410.72 103.07 C 475.86 172.14 485.53 274.34 437.3 355.83 C 431.08 366.34 423.34 376.73 415.44 386.45 Q 410.63 392.36 405.01 397.52 Q 367.72 431.73 319.11 446.2 C 296.25 453.01 272.73 454.82 248.97 453.85 C 202.78 451.95 159.57 435.26 124.46 405.54 C 86.59 373.49 63.18 324.9 55.35 276.21 Z M 262.51 366.82 C 198.98 370.55 144.4 319.76 140.34 257.02 C 139.46 243.41 139.64 228.42 143.35 215.76 Q 147.03 203.2 154.52 188.79 C 171.11 156.88 201.38 135.54 237.01 128.55 Q 248.9 126.22 261 126.94 C 267.54 127.33 274.6 127.52 280.64 128.46 Q 297.41 131.07 312.92 138.13 C 314.3 138.75 315.78 139.95 317.32 140.52 Q 318.13 140.81 318.2 139.95 Q 319.46 124.7 319.43 109.57 C 319.43 105.34 320.86 90.85 316.53 88.97 C 302.1 82.73 284.67 81.08 267.74 80.05 Q 253.97 79.22 243.26 80.22 C 175.1 86.63 115.17 134.81 98.32 202 C 96.16 210.63 93.71 218.81 92.96 227.75 Q 91.01 250.95 94.47 273.97 Q 95.51 280.86 99.42 294.15 Q 104.97 312.98 111.83 326.54 Q 128.55 359.59 158.11 381.89 Q 193 408.23 238.51 414 C 249.42 415.39 258.61 414.9 268.91 414.58 Q 274.92 414.39 279.03 413.79 C 297.01 411.17 313.99 407.27 330.45 399.34 C 331.8 398.7 333.03 397.7 333.08 396.25 Q 333.98 372.25 334.96 348.26 Q 335.11 344.69 334.92 341.59 C 334.9006148706338 341.249771661607 334.6952562897357 340.9485311909139 334.38464821823516 340.8046925537761 C 334.0740401467346 340.66085391663825 333.707841303224 340.6974134324038 333.43 340.9 Q 301.26 364.54 262.51 366.82 Z M 416.28 309.94 C 422.23 296.06 425.23 279.96 426.61 264.99 C 428.63 243.09 427.68 219.51 421.52 198.32 C 411.38 163.39 391.62 133.9 361.7 112.84 C 361.3258873891789 112.58121200691156 360.6609793344766 112.50039445330134 359.89 112.62 Q 359.09 112.75 359.07 114 Q 358.62 136.06 357.95 158.12 Q 357.78 163.43 358.11 167.41 C 358.1892285294038 168.47250720851926 358.48175859016936 169.50656695820228 358.97 170.45 C 366.57 185.23 373.93 200.28 375.43 217.14 C 376.02 223.78 375.58 232.15 375.47 239.62 Q 375.34 247.87 374.9 256.46 Q 373.04 292.23 371.94 328.03 C 371.48 343.13 370.01 358.15 369.64 373.24 Q 369.6 375.03 371.16 375.06 C 371.5747085049852 375.0664485851464 371.97333778615007 374.8997490675684 372.26 374.6 C 377.98 368.61 384.36 362.51 389.31 356.57 C 401.59 341.84 409.16 326.58 416.28 309.94 Z M 339.09 246.58 C 339.09 202.47453987851284 303.3354601214872 166.72000000000003 259.23 166.72 C 215.12453987851285 166.72 179.37 202.47453987851284 179.37 246.57999999999998 C 179.37 290.68546012148715 215.12453987851285 326.44 259.23 326.44 C 303.33546012148713 326.44 339.09 290.68546012148715 339.09 246.58000000000004 Z" stroke-linecap="round" />
</g>
</svg>