<?xml version="1.0" encoding="UTF-8" standalone="no"?>
<!DOCTYPE svg PUBLIC "-//W3C//DTD SVG 1.1//EN" "http://www.w3.org/Graphics/SVG/1.1/DTD/svg11.dtd">
<svg xmlns="http://www.w3.org/2000/svg" version="1.1" viewBox="0.00 0.00 500.00 500.00">
<g stroke-width="2.00" fill="none" stroke-linecap="butt">
<path stroke="#b783f9" vector-effect="non-scaling-stroke" d="
  M 56.00 365.64
  C 50.22 365.63 46.12 362.86 44.00 357.82
  Q 42.90 355.18 42.89 349.03
  Q 42.74 251.30 42.97 153.57
  Q 42.99 146.87 44.38 143.63
  C 48.19 134.72 55.68 134.53 65.49 134.48
  Q 145.85 134.04 226.43 134.32
  A 0.56 0.55 90.0 0 0 226.98 133.76
  L 226.97 124.02
  Q 226.97 123.50 226.46 123.50
  Q 158.60 123.49 90.74 123.50
  C 80.94 123.50 66.15 122.25 55.76 123.41
  C 42.23 124.92 31.93 136.05 31.96 149.75
  Q 32.18 250.87 32.14 352.00
  C 32.14 365.12 42.22 376.47 55.50 376.48
  Q 140.98 376.52 226.46 376.49
  Q 226.98 376.49 226.98 375.96
  L 226.96 366.32
  Q 226.96 365.77 226.41 365.77
  Q 141.19 365.75 56.00 365.64"
/>
<path stroke="#b783f9" vector-effect="non-scaling-stroke" d="
  M 457.04 347.37
  C 457.03 355.67 453.80 362.84 445.68 364.96
  Q 443.75 365.46 433.75 365.52
  Q 353.69 365.96 273.60 365.68
  Q 273.01 365.68 273.01 366.27
  L 273.01 375.98
  A 0.59 0.59 0.0 0 0 273.60 376.57
  Q 357.30 376.28 441.00 376.73
  C 456.06 376.81 468.00 365.13 467.97 350.00
  Q 467.78 249.00 467.89 148.00
  C 467.91 134.10 457.12 123.45 443.25 123.45
  Q 358.36 123.49 273.51 123.51
  Q 273.01 123.51 273.01 124.01
  L 273.01 133.72
  Q 273.02 134.23 273.53 134.23
  Q 358.14 134.26 442.75 134.30
  Q 452.29 134.31 455.72 141.66
  Q 457.10 144.60 457.10 150.55
  Q 457.19 248.96 457.04 347.37"
/>
</g>
<path fill="none" d="
  M 0.00 0.00
  L 500.00 0.00
  L 500.00 500.00
  L 0.00 500.00
  L 0.00 0.00
  Z
  M 56.00 365.64
  C 50.22 365.63 46.12 362.86 44.00 357.82
  Q 42.90 355.18 42.89 349.03
  Q 42.74 251.30 42.97 153.57
  Q 42.99 146.87 44.38 143.63
  C 48.19 134.72 55.68 134.53 65.49 134.48
  Q 145.85 134.04 226.43 134.32
  A 0.56 0.55 90.0 0 0 226.98 133.76
  L 226.97 124.02
  Q 226.97 123.50 226.46 123.50
  Q 158.60 123.49 90.74 123.50
  C 80.94 123.50 66.15 122.25 55.76 123.41
  C 42.23 124.92 31.93 136.05 31.96 149.75
  Q 32.18 250.87 32.14 352.00
  C 32.14 365.12 42.22 376.47 55.50 376.48
  Q 140.98 376.52 226.46 376.49
  Q 226.98 376.49 226.98 375.96
  L 226.96 366.32
  Q 226.96 365.77 226.41 365.77
  Q 141.19 365.75 56.00 365.64
  Z
  M 457.04 347.37
  C 457.03 355.67 453.80 362.84 445.68 364.96
  Q 443.75 365.46 433.75 365.52
  Q 353.69 365.96 273.60 365.68
  Q 273.01 365.68 273.01 366.27
  L 273.01 375.98
  A 0.59 0.59 0.0 0 0 273.60 376.57
  Q 357.30 376.28 441.00 376.73
  C 456.06 376.81 468.00 365.13 467.97 350.00
  Q 467.78 249.00 467.89 148.00
  C 467.91 134.10 457.12 123.45 443.25 123.45
  Q 358.36 123.49 273.51 123.51
  Q 273.01 123.51 273.01 124.01
  L 273.01 133.72
  Q 273.02 134.23 273.53 134.23
  Q 358.14 134.26 442.75 134.30
  Q 452.29 134.31 455.72 141.66
  Q 457.10 144.60 457.10 150.55
  Q 457.19 248.96 457.04 347.37
  Z"
/>
<path fill="none" d="
  M 44.00 357.82
  C 46.12 362.86 50.22 365.63 56.00 365.64
  Q 141.19 365.75 226.41 365.77
  Q 226.96 365.77 226.96 366.32
  L 226.98 375.96
  Q 226.98 376.49 226.46 376.49
  Q 140.98 376.52 55.50 376.48
  C 42.22 376.47 32.14 365.12 32.14 352.00
  Q 32.18 250.87 31.96 149.75
  C 31.93 136.05 42.23 124.92 55.76 123.41
  C 66.15 122.25 80.94 123.50 90.74 123.50
  Q 158.60 123.49 226.46 123.50
  Q 226.97 123.50 226.97 124.02
  L 226.98 133.76
  A 0.56 0.55 90.0 0 1 226.43 134.32
  Q 145.85 134.04 65.49 134.48
  C 55.68 134.53 48.19 134.72 44.38 143.63
  Q 42.99 146.87 42.97 153.57
  Q 42.74 251.30 42.89 349.03
  Q 42.90 355.18 44.00 357.82
  Z"
/>
<path fill="none" d="
  M 445.68 364.96
  C 453.80 362.84 457.03 355.67 457.04 347.37
  Q 457.19 248.96 457.10 150.55
  Q 457.10 144.60 455.72 141.66
  Q 452.29 134.31 442.75 134.30
  Q 358.14 134.26 273.53 134.23
  Q 273.02 134.23 273.01 133.72
  L 273.01 124.01
  Q 273.01 123.51 273.51 123.51
  Q 358.36 123.49 443.25 123.45
  C 457.12 123.45 467.91 134.10 467.89 148.00
  Q 467.78 249.00 467.97 350.00
  C 468.00 365.13 456.06 376.81 441.00 376.73
  Q 357.30 376.28 273.60 376.57
  A 0.59 0.59 0.0 0 1 273.01 375.98
  L 273.01 366.27
  Q 273.01 365.68 273.60 365.68
  Q 353.69 365.96 433.75 365.52
  Q 443.75 365.46 445.68 364.96
  Z"
/>
</svg>
