<?xml version="1.0" encoding="UTF-8" standalone="no"?>
<!DOCTYPE svg PUBLIC "-//W3C//DTD SVG 1.1//EN" "http://www.w3.org/Graphics/SVG/1.1/DTD/svg11.dtd">
<svg xmlns="http://www.w3.org/2000/svg" version="1.1" viewBox="0.00 0.00 500.00 500.00">
<path fill="#151a1e" d="
  M 221.51 86.75
  C 261.97 78.62 309.02 90.71 340.42 117.78
  C 343.26 120.23 346.23 122.57 348.74 125.19
  C 393.60 171.93 400.27 240.37 367.77 295.68
  C 363.33 303.23 358.04 310.05 352.32 317.08
  C 347.25 323.30 341.79 327.43 335.74 332.26
  C 321.82 343.39 304.53 351.42 287.49 356.50
  C 269.15 361.96 248.01 362.56 229.14 360.28
  C 194.94 356.14 160.97 337.39 140.26 309.90
  C 124.09 288.43 114.05 261.55 111.21 236.25
  C 109.62 222.09 110.83 204.53 114.73 188.46
  C 119.16 170.18 127.66 150.96 139.74 136.46
  C 142.28 133.42 144.65 130.14 147.33 127.41
  C 155.49 119.07 165.32 110.29 175.85 104.19
  Q 197.69 91.53 221.51 86.75
  Z
  M 214.46 296.03
  C 190.74 284.78 173.56 262.62 169.59 236.38
  C 168.76 230.85 168.63 222.89 168.70 217.75
  C 168.79 211.07 170.04 203.38 172.62 196.90
  Q 173.84 193.82 175.12 190.76
  Q 186.14 164.23 211.65 151.11
  C 223.11 145.22 237.30 141.47 250.22 142.51
  C 254.79 142.87 259.84 142.93 263.81 143.61
  Q 274.74 145.49 284.87 150.12
  C 285.72 150.51 286.40 151.26 287.30 151.64
  A 0.51 0.51 0.0 0 0 288.01 151.21
  Q 289.22 136.06 288.82 121.25
  Q 288.73 117.87 286.73 117.05
  Q 275.45 112.44 259.24 111.41
  Q 255.08 111.14 250.91 110.92
  C 222.31 109.40 192.20 121.39 171.54 141.04
  Q 155.20 156.58 146.48 176.37
  Q 142.81 184.71 141.65 189.49
  C 139.98 196.45 137.78 202.51 137.14 210.31
  C 136.44 219.04 136.59 229.38 137.69 238.08
  C 138.71 246.14 140.93 252.37 143.06 259.45
  C 152.73 291.58 177.41 316.75 208.72 328.31
  C 221.56 333.05 237.05 336.25 251.08 335.15
  C 253.64 334.95 256.43 335.20 258.75 334.91
  Q 269.40 333.58 279.80 330.99
  C 285.40 329.59 290.85 327.19 296.13 324.93
  Q 297.91 324.16 297.98 322.22
  L 299.27 286.28
  A 0.67 0.67 0.0 0 0 298.19 285.72
  C 274.53 303.50 242.10 309.15 214.46 296.03
  Z
  M 356.02 258.51
  C 361.86 239.20 362.64 218.19 359.12 198.28
  C 357.62 189.84 354.12 180.69 350.65 173.10
  Q 339.82 149.38 318.05 133.68
  Q 317.20 133.06 316.39 132.81
  A 0.76 0.76 0.0 0 0 315.41 133.52
  L 314.56 168.56
  A 5.65 5.63 -57.2 0 0 315.12 171.18
  C 318.92 179.05 323.63 188.04 325.29 196.00
  Q 326.72 202.87 326.44 210.00
  C 326.24 215.34 326.48 220.86 326.12 226.00
  C 325.18 239.52 324.92 252.91 324.26 266.55
  Q 323.91 273.87 323.78 281.19
  C 323.65 289.36 322.44 298.53 322.41 307.25
  Q 322.41 308.09 322.93 308.46
  A 0.87 0.87 0.0 0 0 324.06 308.35
  C 327.36 304.86 331.21 301.35 334.09 297.98
  Q 343.43 287.03 348.39 276.40
  Q 354.67 262.97 356.02 258.51
  Z
  M 301.98 222.58
  A 53.46 53.46 0.0 0 0 248.52 169.12
  A 53.46 53.46 0.0 0 0 195.06 222.58
  A 53.46 53.46 0.0 0 0 248.52 276.04
  A 53.46 53.46 0.0 0 0 301.98 222.58
  Z"
/>
</svg>
